# xmcd CD database file
#
# Track frame offsets:
#	150
#	12160
#	23729
#	37779
#	56895
#	69974
#	83588
#	96643
#	109395
#	123174
#	136853
#	148490
#	160790
#	174955
#	188669
#
# Disc length: 2682 seconds
#
# Revision: 0
# Processed by: cddbd v1.4PL0 Copyright (c) Steve Scherf et al.
# Submitted via: CDex 1.50Beta6
#
DISCID=c20a780f
DTITLE=Various Artist - Preservation Jazz
DYEAR=2001
DGENRE=Jazz
TTITLE0=Muskrat Ramble: Louis Armstrong's Hot Five
TTITLE1=Canal Street Blues: King Oliver's Creole Jazz Band
TTITLE2=Tiger Rag: Original Dixieland Jazz Band
TTITLE3=Bluin' the Blues: Lopez and Hamilton's Kings of Harmony Orchestra
TTITLE4=Rampart Street Blues: Lovie Austin and Her Serenaders
TTITLE5=Cake Walking Babies from Home: Clarence Williams Blues Five
TTITLE6=New Orleans Hop Scop Blues: Clarence Williams' Blues Five
TTITLE7=I've Got the Blues for Rampart Street: Ida Cox
TTITLE8=Heebie Jeebies: Louis Armstrong's Hot Five
TTITLE9=Ja-Da: Original New Orleans Jazz Band
TTITLE10=Everybody Loves My Baby (But My Baby Don't Love Nobody but Me): Clarence Williams' Blues Five
TTITLE11=The Darktown Strutters' Ball: Wilbur Sweatman's Jazz Band
TTITLE12=Buddy's Habits: King Oliver's Creole Jazz Band
TTITLE13=Jazz Me Blues: Original Dixieland Jazz Band
TTITLE14=New Orleans Joys: Jelly Roll Morton
EXTD=YEAR: 2001
EXTT0=
EXTT1=
EXTT2=
EXTT3=
EXTT4=
EXTT5=
EXTT6=
EXTT7=
EXTT8=
EXTT9=
EXTT10=
EXTT11=
EXTT12=
EXTT13=
EXTT14=
PLAYORDER=
